<svg width="994" height="230" viewBox="0 0 994 230" fill="none" xmlns="http://www.w3.org/2000/svg">
<rect width="994" height="230" fill="#42A5F5"/>
<rect width="715" height="214" transform="translate(8 8)" fill="#42A5F5"/>
<path d="M124.992 133.912C123.456 140.141 120.853 145.219 117.184 149.144C113.6 153.069 109.205 155.928 104 157.72C98.88 159.427 93.2053 160.28 86.976 160.28C78.272 160.28 70.72 158.573 64.32 155.16C58.0053 151.661 53.1413 146.669 49.728 140.184C46.3147 133.699 44.608 125.891 44.608 116.76C44.608 107.629 46.3147 99.8213 49.728 93.336C53.1413 86.8507 58.0053 81.9013 64.32 78.488C70.72 74.9893 78.2293 73.24 86.848 73.24C92.992 73.24 98.624 74.0933 103.744 75.8C108.949 77.5067 113.344 80.152 116.928 83.736C120.512 87.32 122.944 91.9707 124.224 97.688L101.568 106.776C100.629 101.315 98.9653 97.688 96.576 95.896C94.272 94.104 91.2853 93.208 87.616 93.208C84.2027 93.208 81.2587 94.104 78.784 95.896C76.3947 97.6027 74.56 100.205 73.28 103.704C72.0853 107.117 71.488 111.469 71.488 116.76C71.488 121.965 72.0427 126.317 73.152 129.816C74.3467 133.315 76.1387 135.96 78.528 137.752C81.0027 139.459 84.2027 140.312 88.128 140.312C91.6267 140.312 94.5707 139.288 96.96 137.24C99.3493 135.192 100.928 131.992 101.696 127.64L124.992 133.912ZM161.307 93.72C168.304 93.72 174.406 95.0427 179.611 97.688C184.816 100.248 188.87 104.003 191.771 108.952C194.672 113.901 196.123 119.917 196.123 127C196.123 133.997 194.672 140.013 191.771 145.048C188.87 149.997 184.816 153.795 179.611 156.44C174.406 159 168.304 160.28 161.307 160.28C154.48 160.28 148.422 159 143.131 156.44C137.926 153.795 133.83 149.997 130.843 145.048C127.942 140.013 126.491 133.997 126.491 127C126.491 119.917 127.942 113.901 130.843 108.952C133.83 104.003 137.926 100.248 143.131 97.688C148.422 95.0427 154.48 93.72 161.307 93.72ZM161.307 111.512C159.43 111.512 157.808 111.981 156.443 112.92C155.163 113.859 154.182 115.48 153.499 117.784C152.816 120.088 152.475 123.16 152.475 127C152.475 130.84 152.816 133.912 153.499 136.216C154.182 138.435 155.163 140.056 156.443 141.08C157.808 142.019 159.43 142.488 161.307 142.488C163.27 142.488 164.891 142.019 166.171 141.08C167.451 140.056 168.432 138.435 169.115 136.216C169.798 133.912 170.139 130.84 170.139 127C170.139 123.16 169.798 120.088 169.115 117.784C168.432 115.48 167.451 113.859 166.171 112.92C164.891 111.981 163.27 111.512 161.307 111.512ZM201.967 159V95H225.263L225.903 108.184C227.78 103.491 230.596 99.9067 234.351 97.432C238.106 94.9573 242.586 93.72 247.791 93.72C252.57 93.72 256.623 94.8293 259.951 97.048C263.364 99.1813 265.796 102.339 267.247 106.52C268.612 103.704 270.319 101.357 272.367 99.48C274.5 97.6027 276.932 96.1947 279.663 95.256C282.479 94.232 285.466 93.72 288.623 93.72C292.89 93.72 296.559 94.5733 299.631 96.28C302.788 97.9013 305.22 100.376 306.927 103.704C308.634 106.947 309.487 110.957 309.487 115.736V159H283.631V122.136C283.631 118.723 283.076 116.376 281.967 115.096C280.858 113.731 279.279 113.048 277.231 113.048C275.524 113.048 273.988 113.475 272.623 114.328C271.343 115.181 270.362 116.547 269.679 118.424C268.996 120.216 268.655 122.477 268.655 125.208V159H242.799V122.136C242.799 118.723 242.244 116.376 241.135 115.096C240.026 113.731 238.447 113.048 236.399 113.048C234.778 113.048 233.284 113.475 231.919 114.328C230.639 115.181 229.615 116.547 228.847 118.424C228.164 120.216 227.823 122.52 227.823 125.336V159H201.967ZM318.002 159V95H341.298L341.938 108.184C343.815 103.491 346.631 99.9067 350.386 97.432C354.141 94.9573 358.621 93.72 363.826 93.72C368.605 93.72 372.658 94.8293 375.986 97.048C379.399 99.1813 381.831 102.339 383.282 106.52C384.647 103.704 386.354 101.357 388.402 99.48C390.535 97.6027 392.967 96.1947 395.698 95.256C398.514 94.232 401.501 93.72 404.658 93.72C408.925 93.72 412.594 94.5733 415.666 96.28C418.823 97.9013 421.255 100.376 422.962 103.704C424.669 106.947 425.522 110.957 425.522 115.736V159H399.666V122.136C399.666 118.723 399.111 116.376 398.002 115.096C396.893 113.731 395.314 113.048 393.266 113.048C391.559 113.048 390.023 113.475 388.658 114.328C387.378 115.181 386.397 116.547 385.714 118.424C385.031 120.216 384.69 122.477 384.69 125.208V159H358.834V122.136C358.834 118.723 358.279 116.376 357.17 115.096C356.061 113.731 354.482 113.048 352.434 113.048C350.813 113.048 349.319 113.475 347.954 114.328C346.674 115.181 345.65 116.547 344.882 118.424C344.199 120.216 343.858 122.52 343.858 125.336V159H318.002ZM446.965 89.368C441.845 89.368 438.133 88.472 435.829 86.68C433.61 84.888 432.501 81.9867 432.501 77.976C432.501 73.88 433.61 70.936 435.829 69.144C438.133 67.352 441.845 66.456 446.965 66.456C452.085 66.456 455.754 67.352 457.973 69.144C460.277 70.936 461.429 73.88 461.429 77.976C461.429 81.9867 460.277 84.888 457.973 86.68C455.754 88.472 452.085 89.368 446.965 89.368ZM459.893 95V159H434.037V95H459.893ZM499.676 73.88V134.424C499.676 137.411 500.316 139.544 501.596 140.824C502.961 142.104 504.967 142.744 507.612 142.744C509.489 142.744 511.111 142.573 512.476 142.232C513.841 141.891 515.121 141.336 516.316 140.568L517.98 155.672C515.932 157.123 513.159 158.232 509.66 159C506.161 159.853 502.748 160.28 499.42 160.28C493.959 160.28 489.308 159.555 485.468 158.104C481.713 156.653 478.812 154.349 476.764 151.192C474.801 148.035 473.82 143.811 473.82 138.52V81.048L499.676 73.88ZM517.084 95V112.792H463.324V95H517.084ZM548.961 73.88V134.424C548.961 137.411 549.601 139.544 550.881 140.824C552.246 142.104 554.252 142.744 556.897 142.744C558.774 142.744 560.396 142.573 561.761 142.232C563.126 141.891 564.406 141.336 565.601 140.568L567.265 155.672C565.217 157.123 562.444 158.232 558.945 159C555.446 159.853 552.033 160.28 548.705 160.28C543.244 160.28 538.593 159.555 534.753 158.104C530.998 156.653 528.097 154.349 526.049 151.192C524.086 148.035 523.105 143.811 523.105 138.52V81.048L548.961 73.88ZM566.369 95V112.792H512.609V95H566.369ZM603.535 160.28C596.196 160.28 589.839 159 584.463 156.44C579.172 153.795 575.076 149.997 572.175 145.048C569.359 140.099 567.951 134.083 567.951 127C567.951 119.917 569.402 113.901 572.303 108.952C575.204 104.003 579.258 100.248 584.463 97.688C589.668 95.0427 595.684 93.72 602.511 93.72C609.508 93.72 615.439 95.0427 620.303 97.688C625.252 100.248 629.007 103.832 631.567 108.44C634.212 113.048 635.535 118.424 635.535 124.568C635.535 126.019 635.45 127.469 635.279 128.92C635.194 130.371 635.066 131.608 634.895 132.632H584.591V121.368H623.631L611.343 126.104C611.343 121.24 610.66 117.571 609.295 115.096C608.015 112.536 605.754 111.256 602.511 111.256C600.292 111.256 598.415 111.768 596.879 112.792C595.428 113.816 594.319 115.523 593.551 117.912C592.868 120.301 592.527 123.459 592.527 127.384C592.527 131.309 592.954 134.424 593.807 136.728C594.746 138.947 596.026 140.483 597.647 141.336C599.268 142.189 601.316 142.616 603.791 142.616C606.522 142.616 608.655 142.061 610.191 140.952C611.727 139.843 612.836 138.307 613.519 136.344L634.255 142.488C633.231 146.413 631.14 149.699 627.983 152.344C624.911 154.989 621.242 156.995 616.975 158.36C612.708 159.64 608.228 160.28 603.535 160.28ZM641.177 159V95H664.345L665.113 109.976C666.564 104.941 668.825 100.973 671.897 98.072C675.054 95.1707 679.15 93.72 684.185 93.72C685.977 93.72 687.428 93.8907 688.537 94.232C689.646 94.488 690.457 94.8293 690.969 95.256L688.665 116.248C687.812 115.907 686.702 115.608 685.337 115.352C683.972 115.096 682.393 114.968 680.601 114.968C678.041 114.968 675.737 115.437 673.689 116.376C671.641 117.315 670.02 118.723 668.825 120.6C667.63 122.392 667.033 124.696 667.033 127.512V159H641.177Z" fill="white"/>
<rect width="263" height="214" transform="translate(723 8)" fill="white"/>
<path d="M839.992 133.912C838.456 140.141 835.853 145.219 832.184 149.144C828.6 153.069 824.205 155.928 819 157.72C813.88 159.427 808.205 160.28 801.976 160.28C793.272 160.28 785.72 158.573 779.32 155.16C773.005 151.661 768.141 146.669 764.728 140.184C761.315 133.699 759.608 125.891 759.608 116.76C759.608 107.629 761.315 99.8213 764.728 93.336C768.141 86.8507 773.005 81.9013 779.32 78.488C785.72 74.9893 793.229 73.24 801.848 73.24C807.992 73.24 813.624 74.0933 818.744 75.8C823.949 77.5067 828.344 80.152 831.928 83.736C835.512 87.32 837.944 91.9707 839.224 97.688L816.568 106.776C815.629 101.315 813.965 97.688 811.576 95.896C809.272 94.104 806.285 93.208 802.616 93.208C799.203 93.208 796.259 94.104 793.784 95.896C791.395 97.6027 789.56 100.205 788.28 103.704C787.085 107.117 786.488 111.469 786.488 116.76C786.488 121.965 787.043 126.317 788.152 129.816C789.347 133.315 791.139 135.96 793.528 137.752C796.003 139.459 799.203 140.312 803.128 140.312C806.627 140.312 809.571 139.288 811.96 137.24C814.349 135.192 815.928 131.992 816.696 127.64L839.992 133.912ZM871.955 139.416H912.147V159H845.843V74.52H871.955V139.416ZM945.365 74.52V159H919.253V74.52H945.365Z" fill="#42A5F5"/>
</svg>
